<svg width="70" height="70" viewBox="0 0 70 70" fill="none" xmlns="http://www.w3.org/2000/svg">
<g clip-path="url(#clip0_55_106)">
<path d="M35 61.25C49.4975 61.25 61.25 49.4975 61.25 35C61.25 20.5025 49.4975 8.75 35 8.75C20.5025 8.75 8.75 20.5025 8.75 35C8.75 49.4975 20.5025 61.25 35 61.25Z" stroke="#C4AE65" stroke-width="2" stroke-linecap="round" stroke-linejoin="round"/>
<path d="M45.9376 24.0625H41.5626C40.6997 24.0589 39.8448 24.2262 39.0469 24.5547C38.2491 24.8832 37.5242 25.3664 36.9141 25.9765C36.304 26.5866 35.8207 27.3115 35.4922 28.1094C35.1637 28.9072 34.9964 29.7622 35.0001 30.625V61.25" stroke="#C4AE65" stroke-width="2" stroke-linecap="round" stroke-linejoin="round"/>
<path d="M26.25 39.375H43.75" stroke="#C4AE65" stroke-width="2" stroke-linecap="round" stroke-linejoin="round"/>
</g>
<defs>
<clipPath id="clip0_55_106">
<rect width="70" height="70" fill="white"/>
</clipPath>
</defs>
</svg>
