<svg width="70" height="70" viewBox="0 0 70 70" fill="none" xmlns="http://www.w3.org/2000/svg">
<g clip-path="url(#clip0_55_111)">
<path d="M35 45.9375C41.0406 45.9375 45.9375 41.0406 45.9375 35C45.9375 28.9594 41.0406 24.0625 35 24.0625C28.9594 24.0625 24.0625 28.9594 24.0625 35C24.0625 41.0406 28.9594 45.9375 35 45.9375Z" stroke="#C4AE65" stroke-width="2" stroke-linecap="round" stroke-linejoin="round"/>
<path d="M47.0312 9.84375H22.9688C15.72 9.84375 9.84375 15.72 9.84375 22.9688V47.0312C9.84375 54.28 15.72 60.1562 22.9688 60.1562H47.0312C54.28 60.1562 60.1562 54.28 60.1562 47.0312V22.9688C60.1562 15.72 54.28 9.84375 47.0312 9.84375Z" stroke="#C4AE65" stroke-width="2" stroke-linecap="round" stroke-linejoin="round"/>
<path d="M49.2188 22.9688C50.4269 22.9688 51.4062 21.9894 51.4062 20.7812C51.4062 19.5731 50.4269 18.5938 49.2188 18.5938C48.0106 18.5938 47.0312 19.5731 47.0312 20.7812C47.0312 21.9894 48.0106 22.9688 49.2188 22.9688Z" fill="#C4AE65"/>
</g>
<defs>
<clipPath id="clip0_55_111">
<rect width="70" height="70" fill="white"/>
</clipPath>
</defs>
</svg>
