<svg width="172" height="234" viewBox="0 0 172 234" fill="none" xmlns="http://www.w3.org/2000/svg">
<path d="M2.079 231V221.9H5.472C6.434 221.9 7.27467 222.078 7.994 222.433C8.71333 222.78 9.27233 223.291 9.671 223.967C10.0697 224.643 10.269 225.475 10.269 226.463C10.269 227.408 10.0697 228.222 9.671 228.907C9.27233 229.583 8.70467 230.103 7.968 230.467C7.23133 230.822 6.36033 231 5.355 231H2.079ZM3.782 229.505H5.42C6.096 229.505 6.66367 229.388 7.123 229.154C7.58233 228.911 7.929 228.565 8.163 228.114C8.40567 227.663 8.527 227.113 8.527 226.463C8.527 225.77 8.41 225.198 8.176 224.747C7.95067 224.288 7.60833 223.95 7.149 223.733C6.68967 223.508 6.11333 223.395 5.42 223.395H3.782V229.505ZM17.324 231V221.9H24.149V223.395H19.027V225.592H23.629V227.087H19.027V229.505H24.24V231H17.324ZM34.0846 231.13C33.5906 231.13 33.1226 231.095 32.6806 231.026C32.2386 230.957 31.8269 230.87 31.4456 230.766L30.6656 230.545L30.9386 229.245L31.8746 229.401C32.1953 229.462 32.5593 229.514 32.9666 229.557C33.3739 229.592 33.7423 229.609 34.0716 229.609C34.6869 229.609 35.1463 229.514 35.4496 229.323C35.7616 229.124 35.9176 228.833 35.9176 228.452C35.9176 228.261 35.8656 228.097 35.7616 227.958C35.6663 227.811 35.4713 227.668 35.1766 227.529C34.8819 227.39 34.4399 227.234 33.8506 227.061C33.1226 226.844 32.5419 226.628 32.1086 226.411C31.6839 226.194 31.3763 225.93 31.1856 225.618C31.0036 225.306 30.9126 224.903 30.9126 224.409C30.9126 223.785 31.0686 223.282 31.3806 222.901C31.7013 222.511 32.1303 222.225 32.6676 222.043C33.2136 221.861 33.8203 221.77 34.4876 221.77C34.8776 221.77 35.2806 221.8 35.6966 221.861C36.1213 221.922 36.5373 222.008 36.9446 222.121L37.4906 222.264L37.2436 223.551L36.4766 223.447C36.1819 223.404 35.8699 223.365 35.5406 223.33C35.2113 223.287 34.8906 223.265 34.5786 223.265C33.9373 223.265 33.4519 223.36 33.1226 223.551C32.8019 223.733 32.6416 224.015 32.6416 224.396C32.6416 224.587 32.6936 224.747 32.7976 224.877C32.9103 224.998 33.1226 225.115 33.4346 225.228C33.7466 225.341 34.2059 225.484 34.8126 225.657C35.5319 225.848 36.0996 226.06 36.5156 226.294C36.9403 226.528 37.2436 226.805 37.4256 227.126C37.6076 227.438 37.6986 227.824 37.6986 228.283C37.6986 228.933 37.5383 229.47 37.2176 229.895C36.8969 230.311 36.4636 230.623 35.9176 230.831C35.3716 231.03 34.7606 231.13 34.0846 231.13ZM49.2345 231.13C48.1338 231.13 47.1935 230.944 46.4135 230.571C45.6335 230.19 45.0355 229.648 44.6195 228.946C44.2035 228.244 43.9955 227.408 43.9955 226.437C43.9955 225.674 44.1255 225.003 44.3855 224.422C44.6455 223.841 45.0051 223.356 45.4645 222.966C45.9325 222.567 46.4741 222.268 47.0895 222.069C47.7048 221.87 48.3635 221.77 49.0655 221.77C49.4728 221.77 49.8845 221.809 50.3005 221.887C50.7165 221.965 51.1238 222.078 51.5225 222.225L51.9385 222.394L51.6395 223.707L51.1455 223.603C50.7815 223.525 50.4261 223.464 50.0795 223.421C49.7415 223.369 49.4208 223.343 49.1175 223.343C48.4588 223.343 47.8738 223.456 47.3625 223.681C46.8598 223.906 46.4611 224.249 46.1665 224.708C45.8805 225.159 45.7375 225.739 45.7375 226.45C45.7375 227.152 45.8761 227.741 46.1535 228.218C46.4308 228.686 46.8338 229.041 47.3625 229.284C47.8911 229.518 48.5281 229.635 49.2735 229.635C49.5248 229.635 49.7891 229.618 50.0665 229.583C50.3438 229.548 50.6211 229.496 50.8985 229.427V227.347H48.4285V225.852H52.6015V230.298C52.2981 230.454 51.9601 230.597 51.5875 230.727C51.2148 230.848 50.8291 230.944 50.4305 231.013C50.0318 231.091 49.6331 231.13 49.2345 231.13ZM59.7584 231V221.9H61.4614V231H59.7584ZM68.9478 231V221.9H70.4298L75.4478 227.776H75.4738V221.9H77.1638V231H75.8638L70.6638 224.864H70.6378V231H68.9478ZM96.5354 231.13C96.0414 231.13 95.5734 231.095 95.1314 231.026C94.6894 230.957 94.2777 230.87 93.8964 230.766L93.1164 230.545L93.3894 229.245L94.3254 229.401C94.646 229.462 95.01 229.514 95.4174 229.557C95.8247 229.592 96.193 229.609 96.5224 229.609C97.1377 229.609 97.597 229.514 97.9004 229.323C98.2124 229.124 98.3684 228.833 98.3684 228.452C98.3684 228.261 98.3164 228.097 98.2124 227.958C98.117 227.811 97.922 227.668 97.6274 227.529C97.3327 227.39 96.8907 227.234 96.3014 227.061C95.5734 226.844 94.9927 226.628 94.5594 226.411C94.1347 226.194 93.827 225.93 93.6364 225.618C93.4544 225.306 93.3634 224.903 93.3634 224.409C93.3634 223.785 93.5194 223.282 93.8314 222.901C94.152 222.511 94.581 222.225 95.1184 222.043C95.6644 221.861 96.271 221.77 96.9384 221.77C97.3284 221.77 97.7314 221.8 98.1474 221.861C98.572 221.922 98.988 222.008 99.3954 222.121L99.9414 222.264L99.6944 223.551L98.9274 223.447C98.6327 223.404 98.3207 223.365 97.9914 223.33C97.662 223.287 97.3414 223.265 97.0294 223.265C96.388 223.265 95.9027 223.36 95.5734 223.551C95.2527 223.733 95.0924 224.015 95.0924 224.396C95.0924 224.587 95.1444 224.747 95.2484 224.877C95.361 224.998 95.5734 225.115 95.8854 225.228C96.1974 225.341 96.6567 225.484 97.2634 225.657C97.9827 225.848 98.5504 226.06 98.9664 226.294C99.391 226.528 99.6944 226.805 99.8764 227.126C100.058 227.438 100.149 227.824 100.149 228.283C100.149 228.933 99.989 229.47 99.6684 229.895C99.3477 230.311 98.9144 230.623 98.3684 230.831C97.8224 231.03 97.2114 231.13 96.5354 231.13ZM109.611 231V223.395H106.478V221.9H114.421V223.395H111.314V231H109.611ZM124.95 231.13C124.135 231.13 123.429 230.987 122.831 230.701C122.233 230.415 121.769 229.99 121.44 229.427C121.119 228.864 120.959 228.175 120.959 227.36V221.9H122.662V227.074C122.662 227.975 122.866 228.608 123.273 228.972C123.689 229.336 124.265 229.518 125.002 229.518C125.747 229.518 126.319 229.336 126.718 228.972C127.117 228.608 127.316 227.975 127.316 227.074V221.9H128.954V227.36C128.954 228.175 128.785 228.864 128.447 229.427C128.118 229.99 127.654 230.415 127.056 230.701C126.458 230.987 125.756 231.13 124.95 231.13ZM136.185 231V221.9H139.578C140.54 221.9 141.38 222.078 142.1 222.433C142.819 222.78 143.378 223.291 143.777 223.967C144.175 224.643 144.375 225.475 144.375 226.463C144.375 227.408 144.175 228.222 143.777 228.907C143.378 229.583 142.81 230.103 142.074 230.467C141.337 230.822 140.466 231 139.461 231H136.185ZM137.888 229.505H139.526C140.202 229.505 140.769 229.388 141.229 229.154C141.688 228.911 142.035 228.565 142.269 228.114C142.511 227.663 142.633 227.113 142.633 226.463C142.633 225.77 142.516 225.198 142.282 224.747C142.056 224.288 141.714 223.95 141.255 223.733C140.795 223.508 140.219 223.395 139.526 223.395H137.888V229.505ZM151.43 231V221.9H153.133V231H151.43ZM164.818 231.13C163.882 231.13 163.067 230.935 162.374 230.545C161.681 230.146 161.143 229.596 160.762 228.894C160.381 228.192 160.19 227.373 160.19 226.437C160.19 225.51 160.385 224.695 160.775 223.993C161.165 223.291 161.707 222.745 162.4 222.355C163.102 221.965 163.908 221.77 164.818 221.77C165.763 221.77 166.582 221.969 167.275 222.368C167.968 222.758 168.506 223.304 168.887 224.006C169.268 224.708 169.459 225.523 169.459 226.45C169.459 227.377 169.264 228.192 168.874 228.894C168.484 229.596 167.938 230.146 167.236 230.545C166.543 230.935 165.737 231.13 164.818 231.13ZM164.818 229.557C165.399 229.557 165.906 229.44 166.339 229.206C166.772 228.963 167.11 228.608 167.353 228.14C167.596 227.672 167.717 227.104 167.717 226.437C167.717 225.77 167.596 225.206 167.353 224.747C167.119 224.288 166.785 223.941 166.352 223.707C165.919 223.464 165.407 223.343 164.818 223.343C164.246 223.343 163.743 223.464 163.31 223.707C162.877 223.941 162.539 224.288 162.296 224.747C162.053 225.206 161.932 225.774 161.932 226.45C161.932 227.117 162.049 227.685 162.283 228.153C162.526 228.612 162.864 228.963 163.297 229.206C163.73 229.44 164.237 229.557 164.818 229.557Z" fill="#C4AE65"/>
<path d="M19.92 207L11.32 195.36H6.04L6.92 190.76H11L19.6 179H25.92L15.72 192.72L26.6 207H19.92ZM3.32 207V179H8.56V207H3.32ZM34.6247 207V179H55.6247V183.6H39.8647V190.36H54.0247V194.96H39.8647V202.4H55.9047V207H34.6247ZM64.8356 207V179H69.3956L84.8356 197.08H84.9156V179H90.1156V207H86.1156L70.1156 188.12H70.0356V207H64.8356ZM109.63 207V197.24L98.3897 179H104.87L112.23 192.08H112.39L119.75 179H126.07L114.87 197.24V207H109.63ZM132.799 189.24L134.919 178H140.319L136.519 189.24H132.799ZM158.374 207.4C156.854 207.4 155.414 207.293 154.054 207.08C152.694 206.867 151.427 206.6 150.254 206.28L147.854 205.6L148.694 201.6L151.574 202.08C152.56 202.267 153.68 202.427 154.934 202.56C156.187 202.667 157.32 202.72 158.334 202.72C160.227 202.72 161.64 202.427 162.574 201.84C163.534 201.227 164.014 200.333 164.014 199.16C164.014 198.573 163.854 198.067 163.534 197.64C163.24 197.187 162.64 196.747 161.734 196.32C160.827 195.893 159.467 195.413 157.654 194.88C155.414 194.213 153.627 193.547 152.294 192.88C150.987 192.213 150.04 191.4 149.454 190.44C148.894 189.48 148.614 188.24 148.614 186.72C148.614 184.8 149.094 183.253 150.054 182.08C151.04 180.88 152.36 180 154.014 179.44C155.694 178.88 157.56 178.6 159.614 178.6C160.814 178.6 162.054 178.693 163.334 178.88C164.64 179.067 165.92 179.333 167.174 179.68L168.854 180.12L168.094 184.08L165.734 183.76C164.827 183.627 163.867 183.507 162.854 183.4C161.84 183.267 160.854 183.2 159.894 183.2C157.92 183.2 156.427 183.493 155.414 184.08C154.427 184.64 153.934 185.507 153.934 186.68C153.934 187.267 154.094 187.76 154.414 188.16C154.76 188.533 155.414 188.893 156.374 189.24C157.334 189.587 158.747 190.027 160.614 190.56C162.827 191.147 164.574 191.8 165.854 192.52C167.16 193.24 168.094 194.093 168.654 195.08C169.214 196.04 169.494 197.227 169.494 198.64C169.494 200.64 169 202.293 168.014 203.6C167.027 204.88 165.694 205.84 164.014 206.48C162.334 207.093 160.454 207.4 158.374 207.4Z" fill="#C4AE65"/>
<path d="M32 73.0897V11.1083C32 8.45478 35.1917 7.10772 37.0929 8.95883L146 115H35.7445L146 5.86729H102.106L67.0529 39.4785L32 73.0897Z" stroke="#C4AE65" stroke-width="10"/>
</svg>
