<svg width="70" height="70" viewBox="0 0 70 70" fill="none" xmlns="http://www.w3.org/2000/svg">
<g clip-path="url(#clip0_55_102)">
<path d="M12.4138 48.3984C9.15687 42.9035 8.01763 36.4086 9.20998 30.1332C10.4023 23.8578 13.8442 18.2334 18.8896 14.3159C23.9349 10.3984 30.2367 8.45717 36.6119 8.8567C42.9871 9.25623 48.9972 11.969 53.514 16.4858C58.0307 21.0026 60.7435 27.0127 61.1431 33.3879C61.5426 39.763 59.6014 46.0648 55.6839 51.1102C51.7663 56.1555 46.1419 59.5974 39.8665 60.7898C33.5911 61.9821 27.0963 60.8429 21.6013 57.5859L12.5232 60.1562C12.1513 60.265 11.7569 60.2718 11.3815 60.1757C11.0061 60.0797 10.6634 59.8844 10.3893 59.6104C10.1153 59.3364 9.92007 58.9937 9.82404 58.6183C9.728 58.2428 9.73473 57.8485 9.84351 57.4766L12.4138 48.3984Z" stroke="#C4AE65" stroke-width="2" stroke-linecap="round" stroke-linejoin="round"/>
<path d="M41.5899 50.3125C38.7116 50.3197 35.8603 49.7581 33.1997 48.66C30.5391 47.5618 28.1218 45.9488 26.0865 43.9135C24.0513 41.8783 22.4382 39.4609 21.3401 36.8003C20.242 34.1398 19.6804 31.2884 19.6876 28.4102C19.6948 26.3843 20.5046 24.444 21.9397 23.014C23.3747 21.5841 25.318 20.7812 27.3438 20.7812C27.6781 20.7786 28.0068 20.8661 28.2955 21.0345C28.5843 21.2029 28.8222 21.446 28.9844 21.7383L32.1837 27.3164C32.3739 27.6555 32.4715 28.0387 32.4667 28.4275C32.4619 28.8163 32.3549 29.197 32.1563 29.5312L29.586 33.8242C30.9026 36.753 33.2471 39.0975 36.1759 40.4141L40.4688 37.8437C40.8031 37.6452 41.1838 37.5381 41.5726 37.5333C41.9614 37.5285 42.3446 37.6262 42.6837 37.8164L48.2618 41.0156C48.554 41.1778 48.7972 41.4158 48.9656 41.7045C49.134 41.9932 49.2215 42.322 49.2188 42.6562C49.2117 44.6799 48.4065 46.619 46.9781 48.0525C45.5497 49.486 43.6135 50.2981 41.5899 50.3125Z" stroke="#C4AE65" stroke-width="2" stroke-linecap="round" stroke-linejoin="round"/>
</g>
<defs>
<clipPath id="clip0_55_102">
<rect width="70" height="70" fill="white"/>
</clipPath>
</defs>
</svg>
